<?xml version="1.0" standalone="no"?>
<!DOCTYPE svg PUBLIC "-//W3C//DTD SVG 20010904//EN"
 "http://www.w3.org/TR/2001/REC-SVG-20010904/DTD/svg10.dtd">
<svg version="1.0" xmlns="http://www.w3.org/2000/svg"
 width="600.000000pt" height="600.000000pt" viewBox="0 0 600.000000 600.000000"
 preserveAspectRatio="xMidYMid meet">

<g transform="translate(0.000000,600.000000) scale(0.100000,-0.100000)"
fill="#000000" stroke="none">
<path d="M3100 4926 c-157 -46 -274 -77 -335 -86 -122 -20 -341 10 -476 64
-82 33 -99 33 -99 2 0 -27 100 -126 128 -126 27 0 0 -15 -58 -33 -111 -33
-254 -140 -323 -240 -21 -30 -64 -113 -96 -185 -130 -290 -225 -391 -364 -392
-35 0 -49 -4 -54 -17 -11 -28 34 -96 85 -129 46 -30 169 -84 192 -84 6 0 -11
-25 -39 -56 -91 -103 -151 -246 -151 -364 0 -30 -5 -73 -10 -95 -6 -26 -5 -44
2 -52 15 -19 26 -16 53 13 l25 27 0 -36 c0 -35 13 -56 24 -38 3 5 9 47 12 95
7 81 6 86 -13 86 -12 0 -25 -11 -33 -27 -14 -27 -14 -27 -18 -5 -6 40 17 160
43 219 27 61 70 119 148 200 27 28 47 56 43 61 -3 6 -21 10 -38 10 -71 0 -218
68 -258 119 l-22 28 51 6 c139 18 250 148 371 437 50 118 96 186 167 251 83
74 184 126 282 143 41 8 76 19 79 26 2 6 -12 18 -30 26 -38 17 -124 91 -93 81
86 -29 227 -57 312 -62 124 -7 211 6 393 58 175 51 204 50 302 -4 176 -96 361
-246 398 -323 17 -34 26 -44 39 -38 42 18 191 52 236 54 126 6 146 -6 242
-144 70 -101 137 -172 185 -197 52 -27 117 -25 160 5 l35 23 -7 -36 c-17 -87
-83 -179 -161 -223 -22 -12 -39 -25 -39 -30 0 -4 13 -29 29 -55 16 -27 35 -68
41 -93 17 -64 15 -193 -4 -273 -9 -38 -16 -81 -16 -96 0 -34 33 -70 71 -78 37
-7 33 -20 -19 -58 -41 -30 -51 -48 -32 -60 14 -9 51 13 91 55 62 66 78 142 26
125 -91 -29 -105 -14 -83 87 8 40 18 93 21 118 10 70 -11 196 -44 260 l-28 57
34 23 c55 38 93 82 124 145 30 62 47 162 35 209 -10 40 -42 34 -56 -10 -13
-39 -60 -74 -98 -74 -62 0 -137 63 -210 175 -25 39 -71 95 -102 127 -52 51
-61 57 -114 63 -59 8 -194 -11 -271 -38 l-39 -14 -30 46 c-38 56 -149 150
-276 234 -172 115 -249 140 -340 113z"/>
<path d="M3544 4095 c-7 -19 -14 -37 -14 -41 0 -14 -118 -174 -191 -259 -102
-118 -229 -234 -344 -316 -93 -66 -255 -156 -255 -143 0 4 5 24 11 43 7 20 13
42 15 49 3 10 11 9 40 -3 20 -8 43 -15 50 -15 21 0 17 37 -11 105 l-24 59 60
84 c34 46 59 85 57 87 -2 3 -35 -26 -72 -64 l-68 -68 -41 16 c-32 12 -78 16
-187 16 -135 0 -148 -2 -194 -25 -27 -14 -88 -62 -136 -107 -71 -67 -87 -87
-87 -112 0 -16 -28 -87 -62 -156 -69 -142 -68 -141 -107 -40 -16 42 -19 77
-19 222 0 94 -3 165 -8 158 -15 -28 -29 -184 -24 -275 4 -79 10 -106 36 -160
17 -36 49 -85 71 -110 31 -34 40 -50 35 -67 -3 -14 -1 -23 6 -23 8 0 7 -5 -2
-16 -10 -13 -10 -17 2 -25 11 -7 12 -11 1 -17 -9 -6 -12 -27 -11 -63 3 -78 12
-98 43 -92 22 5 24 8 15 30 -5 13 -9 49 -9 79 0 30 -5 54 -10 54 -6 0 -3 11 6
25 8 13 13 29 9 35 -3 5 14 -3 39 -20 24 -17 60 -37 80 -45 19 -8 38 -19 41
-25 4 -6 29 -29 57 -50 37 -30 45 -40 30 -40 -11 0 -23 -6 -25 -12 -4 -10 -6
-10 -6 0 -1 19 -201 17 -201 -2 0 -8 5 -18 11 -21 18 -12 143 -14 157 -3 8 7
12 7 12 -2 0 -10 18 -11 78 -6 42 4 111 8 152 10 132 7 203 14 209 24 3 4 51
6 106 2 55 -3 105 -2 111 2 17 12 25 79 26 217 0 66 3 122 7 122 3 1 38 3 76
4 l71 2 -10 -49 c-8 -37 -6 -73 8 -156 26 -154 34 -175 71 -178 17 -1 48 -5
70 -9 99 -15 320 -31 326 -22 4 5 9 5 13 -1 7 -12 94 -21 262 -27 148 -5 166
1 170 56 2 19 6 52 9 74 3 22 8 78 11 125 2 47 7 91 9 98 2 6 -1 12 -8 12 -9
0 -9 2 -1 8 7 4 12 46 13 107 1 55 4 130 7 168 5 54 3 67 -8 67 -12 0 -13 11
-6 63 11 72 3 246 -12 261 -7 7 -10 -17 -10 -74 0 -169 -35 -313 -111 -463
-42 -82 -161 -271 -177 -281 -5 -3 -3 18 5 47 28 108 27 279 -3 469 -7 39 -7
39 22 32 16 -3 67 -19 114 -34 129 -43 131 -24 10 86 -43 39 -102 85 -132 102
-52 30 -54 32 -72 104 -26 104 -121 386 -141 418 -12 19 -26 10 -41 -25z m44
-77 c40 -105 122 -366 122 -390 0 -2 -38 -1 -85 1 -89 3 -192 -10 -237 -31
-17 -8 -34 -31 -48 -65 -21 -51 -23 -53 -61 -53 -50 0 -55 -11 -58 -148 -2
-73 -7 -109 -16 -118 -8 -8 -16 -22 -20 -33 -5 -16 -18 -18 -107 -20 -84 -1
-99 1 -90 12 7 8 12 63 13 140 l1 127 31 22 c150 103 404 373 498 530 19 32
36 58 39 58 3 0 11 -15 18 -32z m-956 -543 c26 -3 50 -10 53 -14 2 -5 -13 -53
-34 -107 -21 -55 -42 -114 -46 -133 -9 -41 -15 -33 -44 59 -24 79 -44 187 -36
200 3 5 18 7 33 5 15 -2 48 -7 74 -10z m-243 -52 c-43 -64 -205 -222 -256
-251 l-42 -23 46 98 c25 54 51 114 58 133 11 34 16 36 116 66 57 17 106 30
107 28 2 -1 -11 -24 -29 -51z m1349 16 c-1 -22 -3 -27 -10 -16 -7 14 -44 24
-113 32 -58 6 -33 15 43 15 l81 0 -1 -31z m-1243 -32 c4 -23 9 -50 11 -59 4
-14 -1 -18 -24 -18 -94 0 -204 -72 -238 -155 -21 -50 -34 -58 -34 -21 0 17 25
50 84 109 45 46 98 106 116 133 19 27 38 52 43 56 20 13 36 -4 42 -45z m805
13 c0 -24 4 -24 62 -4 42 14 58 14 170 0 68 -8 134 -18 147 -22 17 -5 22 -4
17 4 -5 9 0 9 21 1 34 -13 43 -26 43 -61 0 -29 -9 -35 -26 -19 -38 36 -185 28
-264 -15 -66 -36 -157 -144 -122 -144 5 0 18 14 30 30 13 17 26 30 30 30 4 0
5 -30 4 -66 -7 -119 36 -187 117 -187 78 0 140 77 148 187 6 63 -7 106 -45
149 -14 15 -13 17 4 17 40 -1 98 -19 116 -37 16 -16 19 -36 19 -139 1 -126 -9
-184 -48 -272 -19 -44 -31 -57 -66 -72 -23 -11 -50 -20 -60 -20 -11 0 -21 -9
-24 -20 -4 -14 -11 -18 -27 -15 -11 3 -50 7 -86 9 -76 5 -204 18 -208 21 -5 5
-2 104 6 164 8 56 6 67 -10 83 -10 10 -18 20 -18 23 0 10 28 5 32 -6 2 -6 3
76 3 182 0 107 1 200 3 207 7 20 32 14 32 -8z m-589 -56 c-21 -64 -20 -74 11
-74 19 0 126 52 198 96 l35 21 -3 -286 c-1 -157 -3 -292 -4 -299 -1 -9 -20
-13 -67 -12 -55 1 -200 -8 -236 -13 -5 -1 -13 -6 -17 -12 -5 -7 -8 -6 -8 1 0
7 -22 7 -70 1 -58 -8 -77 -7 -114 7 -55 21 -136 82 -136 102 0 8 -12 38 -27
67 -31 61 -35 141 -11 197 33 75 123 140 193 140 34 0 35 -1 19 -17 -68 -68
-53 -225 28 -298 64 -59 142 -45 179 32 17 36 20 57 17 120 l-4 75 32 -36 c34
-39 44 -44 44 -22 0 8 -24 41 -54 73 l-54 59 30 72 c36 86 47 89 19 6z m1350
-134 c-4 -3 -7 -27 -7 -55 -1 -96 -17 -322 -29 -380 -2 -11 -4 -34 -4 -52 -1
-26 -4 -31 -18 -26 -11 5 -14 3 -8 -6 6 -10 3 -11 -13 -2 -30 16 -152 15 -152
-1 0 -10 -3 -9 -9 1 -10 15 -27 18 -146 27 -44 4 -81 7 -83 9 -4 4 114 45 129
45 24 0 104 90 159 180 29 47 53 90 54 96 1 6 9 18 18 27 8 9 32 52 54 96 33
69 40 77 50 63 7 -9 9 -19 5 -22z m-836 -60 c3 -5 1 -10 -4 -10 -6 0 -11 5
-11 10 0 6 2 10 4 10 3 0 8 -4 11 -10z m-1041 -62 c4 -23 20 -72 35 -109 l28
-67 -40 21 c-23 12 -71 49 -107 84 -58 56 -62 62 -40 63 14 0 43 11 65 25 22
13 43 25 46 25 4 0 9 -19 13 -42z m1030 -73 c0 -67 -6 -142 -14 -190 -5 -26
-29 117 -29 170 -1 78 7 107 28 103 13 -3 16 -17 15 -83z"/>
<path d="M2906 2733 c-12 -12 -6 -19 34 -42 44 -24 53 -16 18 16 -31 27 -44
34 -52 26z"/>
<path d="M3133 2684 c-30 -15 -52 -44 -33 -44 5 0 28 9 50 21 64 33 48 55 -17
23z"/>
<path d="M2464 2428 c-8 -13 22 -38 47 -38 9 0 47 -14 84 -31 234 -106 443
-147 647 -129 77 7 198 40 225 62 6 5 24 11 38 14 78 14 126 74 61 74 -12 0
-45 -18 -74 -39 -28 -22 -82 -50 -119 -63 -60 -20 -87 -23 -218 -23 -160 0
-261 16 -385 60 -99 35 -196 81 -219 104 -23 23 -75 28 -87 9z"/>
<path d="M2466 1691 c-3 -4 -38 -12 -77 -15 -106 -11 -216 -42 -270 -77 -79
-51 -209 -228 -209 -287 0 -57 84 -99 208 -103 66 -2 71 -5 46 -23 -22 -16
-148 -2 -207 23 -45 19 -77 59 -77 96 0 22 -8 19 -70 -23 -41 -28 -62 -51 -83
-92 -19 -38 -38 -60 -62 -73 -38 -19 -62 -52 -45 -62 6 -3 13 1 16 10 4 9 13
14 22 10 8 -3 23 2 32 10 41 37 304 49 375 16 44 -20 61 -36 66 -65 6 -28 35
-44 51 -28 10 10 10 14 -1 21 -18 12 -8 97 15 122 35 39 120 65 274 85 81 10
360 12 354 2 -3 -4 13 -9 35 -9 39 -1 58 -4 64 -9 1 -1 15 -4 32 -6 16 -3 34
-9 40 -14 5 -4 22 -7 38 -5 15 2 27 -1 27 -5 0 -8 26 -20 43 -20 14 1 147 -74
163 -91 14 -16 16 -72 15 -477 0 -270 -4 -469 -10 -484 -12 -32 -48 -61 -106
-85 -25 -10 -45 -21 -45 -25 0 -5 403 -8 896 -8 l896 0 -6 33 c-3 17 -15 104
-26 192 -37 288 -79 421 -160 509 -27 29 -105 84 -209 147 -91 56 -181 113
-198 126 l-33 24 -62 -64 c-46 -46 -85 -74 -143 -101 -165 -80 -299 -101 -567
-93 -101 3 -184 6 -185 6 -2 1 -3 7 -3 15 0 12 37 14 228 14 197 -1 239 2 320
20 136 31 266 97 330 167 29 31 52 63 52 71 0 8 -13 32 -29 55 -17 22 -37 62
-46 89 -15 44 -80 120 -103 120 -4 0 -26 -19 -47 -42 -70 -73 -196 -141 -336
-181 -59 -17 -228 -47 -257 -46 -27 1 54 28 163 54 174 41 294 94 382 169 59
51 63 83 21 153 -60 100 -136 148 -260 164 -46 5 -93 15 -104 21 -28 13 -58 3
-72 -25 -11 -23 -36 -157 -29 -163 2 -2 38 7 80 21 42 13 94 27 114 30 73 10
-83 -54 -232 -96 -77 -22 -151 -44 -165 -49 -14 -5 -82 -30 -153 -55 -92 -34
-136 -45 -160 -41 -122 20 -167 36 -252 86 -144 85 -275 152 -334 170 -56 16
-80 40 -42 40 12 0 46 -8 75 -19 l54 -19 6 30 c9 46 7 107 -4 128 -13 24 -47
43 -54 31z"/>
<path d="M2505 1202 c-11 -2 -26 -9 -34 -16 -11 -8 -13 -8 -8 1 9 14 -68 9
-138 -8 -22 -5 -53 -12 -69 -15 -16 -3 -38 -15 -50 -26 -11 -12 -14 -17 -6
-13 12 7 13 6 3 -6 -15 -18 -1 -45 18 -34 8 5 11 5 7 0 -28 -30 152 -66 344
-69 49 0 88 -4 88 -9 0 -4 10 -5 23 -3 12 3 120 8 240 11 120 3 229 10 241 15
24 9 43 40 26 40 -6 0 -10 6 -10 13 0 12 -45 44 -63 46 -4 0 -31 7 -60 15 -28
8 -72 17 -97 20 -118 16 -232 26 -306 28 -45 2 -80 6 -77 11 2 4 -1 7 -6 7 -6
0 -11 -5 -11 -10 0 -7 -7 -7 -17 -2 -10 5 -27 7 -38 4z"/>
<path d="M2300 801 c0 -6 5 -13 10 -16 6 -3 10 1 10 9 0 9 -4 16 -10 16 -5 0
-10 -4 -10 -9z"/>
<path d="M2355 710 c3 -5 8 -10 11 -10 2 0 4 5 4 10 0 6 -5 10 -11 10 -5 0 -7
-4 -4 -10z"/>
<path d="M2215 350 c-3 -6 1 -7 9 -4 18 7 21 14 7 14 -6 0 -13 -4 -16 -10z"/>
<path d="M2093 319 c-6 -6 -9 -18 -6 -25 3 -9 -2 -14 -13 -14 -9 0 -15 -3 -11
-6 3 -4 20 -2 36 4 l31 11 0 -59 c0 -32 4 -61 9 -65 13 -7 5 -45 -12 -62 -16
-16 -116 -45 -129 -37 -5 3 -26 7 -48 8 -37 3 -45 -3 -41 -27 1 -5 -3 -6 -9
-2 -5 3 -10 1 -10 -4 0 -6 -11 -11 -24 -11 -13 0 -37 -7 -52 -15 -27 -14 -12
-15 174 -15 132 0 202 4 202 10 0 7 6 7 19 0 11 -5 32 -10 48 -10 l28 0 -33
31 c-46 44 -61 70 -68 120 -3 24 -10 49 -15 55 -5 6 -6 13 -3 17 3 3 7 26 7
51 2 42 1 45 -21 39 -12 -3 -28 0 -35 6 -10 7 -17 7 -24 0z"/>
<path d="M2018 153 c7 -3 16 -2 19 1 4 3 -2 6 -13 5 -11 0 -14 -3 -6 -6z"/>
</g>
</svg>
